Coordinates
version=1
nRows=21
nColumns=12
inDegrees=yes

Units are S.I. units (second, meters, Newtons, ...)
Angles are in degrees

endheader
time	SC_y	SC_z	SC_x	AC_y	AC_z	AC_x	GH_y	GH_z	GH_yy	EL_x	PS_y
       0.0              -55.72          24.51          46.37          62.71         -10.17           8.09          162.9          83.83          119.2          45.84          63.72
   0.01624              -55.71          24.51          46.37          62.71         -10.17          8.089          162.9          83.82          119.2          45.85          63.72
   0.03249              -55.71          24.51          46.37           62.7         -10.17          8.089          162.9          83.82          119.2          45.85          63.71
   0.04873              -55.71          24.51          46.38           62.7         -10.17          8.088          162.9          83.81          119.2          45.86          63.71
   0.06498              -55.71          24.51          46.38          62.69         -10.17          8.087          162.9          83.81          119.1          45.86           63.7
   0.08122               -55.7          24.51          46.38          62.68         -10.17          8.086          162.9           83.8          119.1          45.87           63.7
   0.09747               -55.7          24.51          46.39          62.68         -10.17          8.085          162.9           83.8          119.1          45.88          63.69
    0.1137               -55.7          24.51          46.39          62.67         -10.17          8.084          162.8          83.79          119.1          45.88          63.69
      0.13              -55.69          24.51           46.4          62.66         -10.17          8.083          162.8          83.79          119.0          45.89          63.68
    0.1462              -55.69          24.51           46.4          62.66         -10.17          8.082          162.8          83.78          119.0           45.9          63.67
    0.1624              -55.68          24.51          46.41          62.65         -10.17           8.08          162.8          83.77          119.0           45.9          63.66
    0.1787              -55.68          24.51          46.41          62.64         -10.18          8.079          162.8          83.76          119.0          45.91          63.65
    0.1949              -55.67          24.52          46.42          62.63         -10.18          8.078          162.8          83.76          118.9          45.92          63.64
    0.2112              -55.67          24.52          46.43          62.62         -10.18          8.076          162.8          83.75          118.9          45.93          63.63
    0.2274              -55.66          24.52          46.43          62.61         -10.18          8.074          162.8          83.74          118.8          45.94          63.62
    0.2437              -55.66          24.52          46.44          62.59         -10.18          8.072          162.8          83.73          118.8          45.95          63.61
    0.2599              -55.65          24.52          46.45          62.58         -10.18           8.07          162.7          83.72          118.8          45.97           63.6
    0.2762              -55.64          24.52          46.46          62.56         -10.18          8.068          162.7           83.7          118.7          45.98          63.58
    0.2924              -55.63          24.52          46.47          62.55         -10.18          8.065          162.7          83.69          118.7           46.0          63.57
    0.3086              -55.62          24.53          46.48          62.53         -10.18          8.063          162.7          83.68          118.6          46.01          63.55
    0.3249              -55.61          24.53          46.49          62.51         -10.18           8.06          162.7          83.66          118.5          46.03          63.53
